<svg width="14" height="1637" viewBox="0 0 14 1637" fill="none" xmlns="http://www.w3.org/2000/svg">
<path d="M6.54813 1636.09L12.3216 1630.32L6.54813 1624.54L0.77463 1630.32L6.54813 1636.09ZM5.5481 10.3842L5.54813 1630.32L7.54813 1630.32L7.5481 10.3842L5.5481 10.3842Z" fill="black" fill-opacity="0.58"/>
<path d="M7.00275 1185.87L13.0673 1197.3H0.938191L7.00275 1185.87Z" fill="black" fill-opacity="0.58"/>
<path d="M7.00274 1208.72L0.938181 1197.3H13.0673L7.00274 1208.72Z" fill="black" fill-opacity="0.58"/>
<path d="M7.00275 488.057L13.0673 499.48H0.938191L7.00275 488.057Z" fill="black" fill-opacity="0.58"/>
<path d="M7.00274 510.902L0.938181 499.48H13.0673L7.00274 510.902Z" fill="black" fill-opacity="0.58"/>
<path d="M7.00275 0L13.0673 11.4226H0.938191L7.00275 0Z" fill="black" fill-opacity="0.58"/>
<path d="M7.00274 22.8452L0.938181 11.4226L13.0673 11.4226L7.00274 22.8452Z" fill="black" fill-opacity="0.58"/>
</svg>
